<svg xmlns="http://www.w3.org/2000/svg" viewBox="0 0 128 128"><defs><style>.cls-1{fill:#001e36;}.cls-2{fill:#31a8ff;}</style></defs><g id="Layer_2" data-name="Layer 2"><g id="Слой_1" data-name="Слой 1"><g id="Lightroom_Classic" data-name="Lightroom Classic"><rect id="Прямоугольник_19" data-name="Прямоугольник 19" class="cls-1" width="128" height="128" rx="20"/><path id="Контур_36" data-name="Контур 36" class="cls-2" d="M47.1,90.49v0a1.52,1.52,0,0,1-.5.83,1.5,1.5,0,0,1-.93.3h-29a1.35,1.35,0,0,1-1-.42,1.56,1.56,0,0,1-.35-1V39.54a1.23,1.23,0,0,1,1.13-1.3h8.62a1.14,1.14,0,0,1,.86.37,1.3,1.3,0,0,1,.28.85V82.89H47.16a1.28,1.28,0,0,1,1,.39,1.16,1.16,0,0,1,.21,1.06Z"/><path id="Контур_37" data-name="Контур 37" class="cls-2" d="M51.08,52.26a1.14,1.14,0,0,1,.9-.37h7.41a1.55,1.55,0,0,1,.93.28,1.69,1.69,0,0,1,.56.78,12.08,12.08,0,0,1,.7,3.15,15.09,15.09,0,0,1,11.54-4.92,1.14,1.14,0,0,1,1.22,1.07v8.12A1.17,1.17,0,0,1,73,61.59c-4.42-.25-7.81.9-10.27,3.35a1.92,1.92,0,0,0-.52,1.42V90.42a1.21,1.21,0,0,1-.38.92,1.4,1.4,0,0,1-.92.3H52.61a1.42,1.42,0,0,1-1-.33,1.26,1.26,0,0,1-.4-1V63.68q0-6.36-.39-10.49A1.15,1.15,0,0,1,51.08,52.26Z"/><path id="Контур_38" data-name="Контур 38" class="cls-2" d="M113.76,90.71l0,0c-2.69,1.1-6.4,1.62-11.06,1.62-7.61,0-14-2.28-19-6.88s-7.55-11.6-7.55-20.76c0-8.14,2.47-14.74,7.45-19.72s11.66-7.54,19.8-7.54c4.79,0,8.45.55,10.9,1.71a1.31,1.31,0,0,1,.69.6,1.81,1.81,0,0,1,.19.89v6.86a1.78,1.78,0,0,1-.06.56,1.06,1.06,0,0,1-.36.57.9.9,0,0,1-.76.14,1.77,1.77,0,0,1-.48-.23,20.07,20.07,0,0,0-9.81-2.1c-5.11,0-9.08,1.57-12,4.68h0c-2.9,3-4.39,7.43-4.39,13.26a25.2,25.2,0,0,0,1.53,9.22A13.59,13.59,0,0,0,93,79.4a18.33,18.33,0,0,0,5.32,2.89,18.9,18.9,0,0,0,5.87.92,27.18,27.18,0,0,0,9.07-1.46,1.07,1.07,0,0,1,1,.06,1.15,1.15,0,0,1,.42,1v6.31a1.78,1.78,0,0,1-.89,1.61Z"/></g></g></g></svg>