<?xml version="1.0" encoding="utf-8"?>
<!-- Generator: Adobe Illustrator 24.1.3, SVG Export Plug-In . SVG Version: 6.00 Build 0)  -->
<svg version="1.1" xmlns="http://www.w3.org/2000/svg" xmlns:xlink="http://www.w3.org/1999/xlink" x="0px" y="0px"
	 viewBox="0 0 128 128" style="enable-background:new 0 0 128 128;" xml:space="preserve">
<style type="text/css">
	.st0{fill:#3B1B16;}
	.st1{fill:#E54629;}
	.st2{fill:#000B1D;}
	.st3{fill:#FFFFFF;}
	.st4{fill:#00005B;}
	.st5{fill:#9999FF;}
	.st6{fill-rule:evenodd;clip-rule:evenodd;fill:#9999FF;}
	.st7{fill-rule:evenodd;clip-rule:evenodd;fill:#FFFFFF;}
	.st8{fill:#FA0F00;}
	.st9{clip-path:url(#SVGID_2_);}
	.st10{fill:#013301;}
	.st11{fill-rule:evenodd;clip-rule:evenodd;fill:#33FF66;}
	.st12{fill:#33FF66;}
	.st13{fill:#470137;}
	.st14{fill-rule:evenodd;clip-rule:evenodd;fill:#FF61F6;}
	.st15{fill:#FF61F6;}
	.st16{fill:#241703;}
	.st17{fill:#F19D3B;}
	.st18{fill:#330000;}
	.st19{fill:#FF9A00;}
	.st20{fill:#49021F;}
	.st21{fill:#FF3366;}
	.st22{fill:#001E36;}
	.st23{fill:#31A8FF;}
	.st24{fill:#370000;}
	.st25{fill-rule:evenodd;clip-rule:evenodd;fill:#FA0F00;}
	.st26{fill:#373737;}
</style>
<g id="Слой_1">
</g>
<g id="Layer_2">
	<g>
		<path class="st22" d="M20,0h88c11,0,20,9,20,20v88c0,11-9,20-20,20H20c-11,0-20-9-20-20V20C0,9,9,0,20,0z"/>
		<path class="st23" d="M47.1,90.5L47.1,90.5c-0.1,0.3-0.3,0.6-0.5,0.8c-0.3,0.2-0.6,0.3-0.9,0.3h-29c-0.4,0-0.8-0.1-1-0.4
			c-0.2-0.3-0.4-0.7-0.3-1V39.5c0-0.7,0.5-1.3,1.1-1.3h0.2h8.4c0.3,0,0.6,0.1,0.9,0.4c0.2,0.2,0.3,0.5,0.3,0.8v43.4h20.9
			c0.4,0,0.7,0.1,1,0.4c0.2,0.3,0.3,0.7,0.2,1.1L47.1,90.5z"/>
		<path class="st23" d="M51.1,52.3c0.2-0.3,0.6-0.4,0.9-0.4h7.4c0.3,0,0.7,0.1,0.9,0.3c0.3,0.2,0.5,0.5,0.6,0.8
			c0.4,1,0.6,2.1,0.7,3.1c2.9-3.2,7.2-5,11.5-4.9c0.6,0,1.2,0.4,1.2,1.1l0,0.2v8c0.1,0.6-0.4,1.2-1,1.2c-0.1,0-0.2,0-0.3,0
			c-4.4-0.3-7.8,0.9-10.3,3.4c-0.4,0.4-0.5,0.9-0.5,1.4v24.1c0,0.3-0.1,0.7-0.4,0.9c-0.3,0.2-0.6,0.3-0.9,0.3h-8.3
			c-0.4,0-0.7-0.1-1-0.3c-0.3-0.3-0.4-0.6-0.4-1V63.7c0-4.2-0.1-7.7-0.4-10.5C50.8,52.9,50.9,52.5,51.1,52.3z"/>
		<path class="st23" d="M113.8,90.7L113.8,90.7c-2.7,1.1-6.4,1.6-11.1,1.6c-7.6,0-14-2.3-19-6.9c-5.1-4.6-7.6-11.6-7.6-20.8
			c0-8.1,2.5-14.7,7.5-19.7c5-5,11.7-7.5,19.8-7.5c4.8,0,8.5,0.5,10.9,1.7c0.3,0.1,0.5,0.3,0.7,0.6c0.1,0.3,0.2,0.6,0.2,0.9v6.9
			c0,0.2,0,0.4-0.1,0.6c-0.1,0.2-0.2,0.4-0.4,0.6c-0.2,0.2-0.5,0.2-0.8,0.1c-0.2,0-0.3-0.1-0.5-0.2c-3-1.5-6.4-2.2-9.8-2.1
			c-5.1,0-9.1,1.6-12,4.7c-2.9,3-4.4,7.4-4.4,13.3c-0.1,3.1,0.4,6.3,1.5,9.2c0.8,2.3,2.3,4.3,4.1,5.8c1.6,1.3,3.4,2.2,5.3,2.9
			c1.9,0.6,3.9,0.9,5.9,0.9c3.1,0,6.2-0.5,9.1-1.5c0.3-0.2,0.7-0.1,1,0.1c0.3,0.2,0.4,0.6,0.4,1v6.3
			C114.7,89.7,114.4,90.4,113.8,90.7L113.8,90.7z"/>
	</g>
</g>
</svg>
