<?xml version="1.0" encoding="utf-8"?>
<!-- Generator: Adobe Illustrator 24.1.3, SVG Export Plug-In . SVG Version: 6.00 Build 0)  -->
<svg version="1.1" id="Слой_1" xmlns="http://www.w3.org/2000/svg" xmlns:xlink="http://www.w3.org/1999/xlink" x="0px" y="0px"
	 viewBox="0 0 266 239" style="enable-background:new 0 0 266 239;" xml:space="preserve">
<style type="text/css">
	.st0{fill:#3B1B16;}
	.st1{fill:#E54629;}
	.st2{fill:#000B1D;}
	.st3{fill:#FFFFFF;}
	.st4{fill:#00005B;}
	.st5{fill:#9999FF;}
	.st6{fill-rule:evenodd;clip-rule:evenodd;fill:#9999FF;}
	.st7{fill-rule:evenodd;clip-rule:evenodd;fill:#FFFFFF;}
	.st8{fill:#FA0F00;}
	.st9{clip-path:url(#SVGID_2_);}
	.st10{fill:#013301;}
	.st11{fill-rule:evenodd;clip-rule:evenodd;fill:#33FF66;}
	.st12{fill:#33FF66;}
	.st13{fill:#470137;}
	.st14{fill-rule:evenodd;clip-rule:evenodd;fill:#FF61F6;}
	.st15{fill:#FF61F6;}
	.st16{fill:#241703;}
	.st17{fill:#F19D3B;}
	.st18{fill:#330000;}
	.st19{fill:#FF9A00;}
	.st20{fill:#49021F;}
	.st21{fill:#FF3366;}
	.st22{fill:#001E36;}
	.st23{fill:#31A8FF;}
	.st24{fill:#370000;}
	.st25{fill-rule:evenodd;clip-rule:evenodd;fill:#FA0F00;}
	.st26{fill:#373737;}
</style>
<g id="Lightroom_Classic_1_" transform="translate(3343 308)">
	<path id="Прямоугольник_19_1_" class="st22" d="M-3251.6-252.8h88c11,0,20,9,20,20v88c0,11-9,20-20,20h-88
		c-11,0-20-9-20-20v-88C-3271.6-243.9-3262.7-252.8-3251.6-252.8z"/>
	<path id="Контур_36_1_" class="st23" d="M-3224.5-162.3L-3224.5-162.3c-0.1,0.3-0.3,0.6-0.5,0.8c-0.3,0.2-0.6,0.3-0.9,0.3
		h-29c-0.4,0-0.8-0.1-1-0.4c-0.2-0.3-0.4-0.7-0.3-1v-50.6c0-0.7,0.5-1.3,1.1-1.3c0.1,0,0.1,0,0.2,0h8.4c0.3,0,0.6,0.1,0.9,0.4
		c0.2,0.2,0.3,0.5,0.3,0.8v43.4h20.9c0.4,0,0.7,0.1,1,0.4c0.2,0.3,0.3,0.7,0.2,1.1L-3224.5-162.3z"/>
	<path id="Контур_37_1_" class="st23" d="M-3220.6-200.5c0.2-0.3,0.6-0.4,0.9-0.4h7.4c0.3,0,0.7,0.1,0.9,0.3
		c0.3,0.2,0.5,0.5,0.6,0.8c0.4,1,0.6,2.1,0.7,3.1c2.9-3.2,7.2-5,11.5-4.9c0.6,0,1.2,0.4,1.2,1.1c0,0.1,0,0.1,0,0.2v8
		c0.1,0.6-0.4,1.2-1,1.2c-0.1,0-0.2,0-0.3,0c-4.4-0.3-7.8,0.9-10.3,3.4c-0.4,0.4-0.5,0.9-0.5,1.4v24.1c0,0.3-0.1,0.7-0.4,0.9
		c-0.3,0.2-0.6,0.3-0.9,0.3h-8.3c-0.4,0-0.7-0.1-1-0.3c-0.3-0.3-0.4-0.6-0.4-1v-26.7c0-4.2-0.1-7.7-0.4-10.5
		C-3220.9-199.9-3220.8-200.3-3220.6-200.5z"/>
	<path id="Контур_38_1_" class="st23" d="M-3157.9-162.1L-3157.9-162.1c-2.7,1.1-6.4,1.6-11.1,1.6c-7.6,0-14-2.3-19-6.9
		c-5.1-4.6-7.6-11.6-7.6-20.8c0-8.1,2.5-14.7,7.5-19.7c5-5,11.7-7.5,19.8-7.5c4.8,0,8.5,0.5,10.9,1.7c0.3,0.1,0.5,0.3,0.7,0.6
		c0.1,0.3,0.2,0.6,0.2,0.9v6.9c0,0.2,0,0.4-0.1,0.6c-0.1,0.2-0.2,0.4-0.4,0.6c-0.2,0.2-0.5,0.2-0.8,0.1c-0.2,0-0.3-0.1-0.5-0.2
		c-3-1.5-6.4-2.2-9.8-2.1c-5.1,0-9.1,1.6-12,4.7l0,0c-2.9,3-4.4,7.4-4.4,13.3c-0.1,3.1,0.4,6.3,1.5,9.2c0.8,2.3,2.3,4.3,4.1,5.8
		c1.6,1.3,3.4,2.2,5.3,2.9c1.9,0.6,3.9,0.9,5.9,0.9c3.1,0,6.2-0.5,9.1-1.5c0.3-0.2,0.7-0.1,1,0.1c0.3,0.2,0.4,0.6,0.4,1v6.3
		C-3156.9-163.1-3157.3-162.4-3157.9-162.1L-3157.9-162.1z"/>
</g>
</svg>
